# Copyright © 2012, 2013 RainWarrior
# 
# This file is part of TrussMod.
# 
# TrussMod is free software: you can redistribute it and/or modify
# it under the terms of the GNU General Public License as published by
# the Free Software Foundation, either version 3 of the License, or
# (at your option) any later version.
# 
# TrussMod is distributed in the hope that it will be useful,
# but WITHOUT ANY WARRANTY; without even the implied warranty of
# MERCHANTABILITY or FITNESS FOR A PARTICULAR PURPOSE.  See the
# GNU General Public License for more details.
# 
# You should have received a copy of the GNU General Public License
# along with TrussMod. If not, see <http://www.gnu.org/licenses/>.
# 
# Additional permission under GNU GPL version 3 section 7
# 
# If you modify this Program, or any covered work, by linking or combining it
# with Minecraft and/or MinecraftForge (or a modified version of Minecraft
# and/or Minecraft Forge), containing parts covered by the terms of
# Minecraft Terms of Use and/or Minecraft Forge Public Licence, the licensors
# of this Program grant you additional permission to convey the resulting work.
# 
#
# Blender v2.63 (sub 0) OBJ File: 'Frame2.blend'
# www.blender.org
mtllib Frame2.mtl
o Frame
v 0.500000 -0.500000 0.000000
v 0.000000 -0.500000 -0.500000
v 0.500000 -0.000000 -0.500000
v -0.000000 -0.500000 0.500000
v 0.500000 -0.000000 0.500000
v -0.500000 -0.500000 -0.000000
v -0.500000 -0.000000 0.500000
v -0.500000 -0.000000 -0.500000
v 0.500000 0.500000 0.000000
v 0.000000 0.500000 -0.500000
v -0.000000 0.500000 0.500000
v -0.500000 0.500000 -0.000000
v -0.428571 0.500000 -0.071429
v -0.071428 0.500000 -0.428571
v 0.071429 0.500000 -0.428571
v 0.428571 0.500000 -0.071428
v 0.428571 0.500000 0.071429
v 0.071428 0.500000 0.428572
v -0.071429 0.500000 0.428571
v -0.428572 0.500000 0.071429
v 0.071429 0.428571 -0.500000
v 0.428572 0.071429 -0.500000
v 0.428572 -0.071429 -0.500000
v 0.071429 -0.428571 -0.500000
v -0.071428 -0.428571 -0.500000
v -0.428571 -0.071429 -0.500000
v -0.428571 0.071429 -0.500000
v -0.071428 0.428571 -0.500000
v 0.500000 0.428571 -0.071428
v 0.500000 0.071429 -0.428571
v 0.500000 -0.071429 -0.428571
v 0.500000 -0.428571 -0.071429
v 0.500000 -0.428571 0.071429
v 0.500000 -0.071429 0.428572
v 0.500000 0.071429 0.428572
v 0.500000 0.428571 0.071429
v -0.428572 0.071429 0.500000
v -0.071429 0.428571 0.500000
v 0.071428 0.428571 0.500000
v 0.428571 0.071429 0.500000
v 0.428571 -0.071429 0.500000
v 0.071429 -0.428571 0.500000
v -0.071429 -0.428571 0.500000
v -0.428572 -0.071429 0.500000
v -0.500000 0.428571 0.071428
v -0.500000 0.071429 0.428571
v -0.500000 -0.071429 0.428571
v -0.500000 -0.428571 0.071428
v -0.500000 -0.428571 -0.071429
v -0.500000 -0.071429 -0.428572
v -0.500000 0.071429 -0.428572
v -0.500000 0.428571 -0.071429
v 0.071429 -0.500000 0.428571
v 0.428571 -0.500000 0.071429
v 0.428571 -0.500000 -0.071429
v 0.071429 -0.500000 -0.428571
v -0.071428 -0.500000 -0.428571
v -0.428571 -0.500000 -0.071429
v -0.428571 -0.500000 0.071428
v -0.071429 -0.500000 0.428571
v 0.357143 0.500000 0.000000
v 0.000000 0.500000 -0.357143
v -0.000000 0.500000 0.357143
v -0.357143 0.500000 -0.000000
v 0.000000 -0.357143 -0.500000
v 0.357143 -0.000000 -0.500000
v -0.357143 -0.000000 -0.500000
v 0.000000 0.357143 -0.500000
v 0.500000 -0.357143 0.000000
v 0.500000 -0.000000 -0.357143
v 0.500000 -0.000000 0.357143
v 0.500000 0.357143 0.000000
v 0.357143 -0.000000 0.500000
v -0.000000 0.357143 0.500000
v -0.000000 -0.357143 0.500000
v -0.357143 -0.000000 0.500000
v -0.500000 -0.357143 -0.000000
v -0.500000 -0.000000 0.357143
v -0.500000 -0.000000 -0.357143
v -0.500000 0.357143 -0.000000
v 0.000000 -0.500000 -0.357143
v 0.357143 -0.500000 0.000000
v -0.357143 -0.500000 -0.000000
v 0.000000 -0.500000 0.357143
v -0.428571 0.428571 -0.142857
v -0.428571 0.142857 -0.428571
v -0.142857 0.428571 -0.428571
v 0.142857 0.428571 -0.428571
v 0.428572 0.142857 -0.428571
v 0.428571 0.428571 -0.142857
v 0.428571 0.428571 0.142857
v 0.428571 0.142857 0.428572
v 0.142857 0.428571 0.428572
v -0.142857 0.428571 0.428571
v -0.428572 0.142857 0.428571
v -0.428572 0.428571 0.142857
v -0.428572 -0.142857 0.428571
v -0.428571 -0.428571 0.142857
v -0.142857 -0.428571 0.428571
v 0.428571 -0.142857 0.428572
v 0.142857 -0.428571 0.428571
v 0.428571 -0.428571 0.142857
v 0.428571 -0.142857 -0.428571
v 0.428571 -0.428571 -0.142857
v 0.142857 -0.428571 -0.428571
v -0.428571 -0.142857 -0.428572
v -0.142857 -0.428571 -0.428571
v -0.428571 -0.428571 -0.142857
v 0.428571 0.428571 0.000000
v -0.000000 0.428571 0.428571
v 0.428571 -0.000000 0.428572
v 0.000000 0.428571 -0.428571
v -0.428571 0.428571 -0.000000
v -0.000000 -0.428571 0.428571
v -0.428571 -0.428571 -0.000000
v 0.428571 -0.428571 0.000000
v 0.000000 -0.428571 -0.428571
v -0.428571 -0.000000 -0.428571
v -0.428572 -0.000000 0.428571
v 0.428572 -0.000000 -0.428571
vt 0.968750 0.312500
vt 0.968750 0.343750
vt 0.937500 0.343750
vt 0.937500 0.312500
vt 0.906250 0.937500
vt 0.906250 0.906250
vt 0.937500 0.906250
vt 0.937500 0.937500
vt 0.968750 0.687500
vt 0.968750 0.718750
vt 0.937500 0.718750
vt 0.937500 0.687500
vt 0.968750 0.281250
vt 0.937500 0.281250
vt 0.937500 0.250000
vt 0.968750 0.250000
vt 0.906250 0.375000
vt 0.906250 0.343750
vt 0.937500 0.375000
vt 0.968750 0.593750
vt 0.968750 0.625000
vt 0.937500 0.625000
vt 0.937500 0.593750
vt 0.968750 0.468750
vt 0.937500 0.468750
vt 0.937500 0.437500
vt 0.968750 0.437500
vt 0.968750 0.906250
vt 0.937500 0.875000
vt 0.968750 0.875000
vt 0.937500 0.750000
vt 0.906250 0.750000
vt 0.906250 0.718750
vt 0.937500 0.843750
vt 0.906250 0.843750
vt 0.906250 0.812500
vt 0.937500 0.812500
vt 0.937500 0.406250
vt 0.968750 0.406250
vt 0.843750 0.343750
vt 0.843750 0.312500
vt 0.875000 0.312500
vt 0.875000 0.343750
vt 0.937500 0.500000
vt 0.937500 0.531250
vt 0.906250 0.531250
vt 0.906250 0.500000
vt 0.906250 0.437500
vt 0.906250 0.468750
vt 0.843750 0.062500
vt 0.843750 0.093750
vt 0.812500 0.093750
vt 0.812500 0.062500
vt 0.968750 0.156250
vt 0.968750 0.187500
vt 0.937500 0.187500
vt 0.937500 0.156250
vt 0.968750 0.812500
vt 0.937500 0.781250
vt 0.968750 0.781250
vt 0.906250 0.156250
vt 0.906250 0.125000
vt 0.937500 0.125000
vt 0.937500 0.656250
vt 0.906250 0.656250
vt 0.906250 0.625000
vt 0.937500 0.218750
vt 0.906250 0.250000
vt 0.906250 0.218750
vt 0.937500 0.062500
vt 0.937500 0.031250
vt 0.968750 0.031250
vt 0.968750 0.062500
vt 0.968750 0.531250
vt 0.968750 0.562500
vt 0.937500 0.562500
vt 0.875000 0.062500
vt 0.843750 0.031250
vt 0.875000 0.031250
vt 0.843750 0.375000
vt 0.812500 0.375000
vt 0.812500 0.343750
vt 0.937500 0.093750
vt 0.906250 0.093750
vt 0.906250 0.062500
vt 0.968750 0.750000
vt 0.968750 0.937500
vt 0.390228 0.687500
vt 0.390228 0.718750
vt 0.234772 0.718750
vt 0.234772 0.687500
vt 0.422272 0.218750
vt 0.422272 0.187500
vt 0.577728 0.187500
vt 0.577728 0.218750
vt 0.906250 0.875000
vt 0.968750 0.375000
vt 0.374682 0.750000
vt 0.250318 0.750000
vt 0.906250 0.562500
vt 0.562182 0.250000
vt 0.437818 0.250000
vt 0.187005 0.093735
vt 0.202506 0.124985
vt 0.047494 0.124985
vt 0.062995 0.093735
vt 0.235618 0.343735
vt 0.235618 0.312485
vt 0.389382 0.312485
vt 0.389382 0.343735
vt 0.202728 0.812500
vt 0.202728 0.843750
vt 0.047272 0.843750
vt 0.047272 0.812500
vt 0.764815 0.625000
vt 0.764815 0.656250
vt 0.610185 0.656250
vt 0.610185 0.625000
vt 0.390228 0.375000
vt 0.390228 0.406250
vt 0.234772 0.406250
vt 0.234772 0.375000
vt 0.234772 0.093750
vt 0.234772 0.062500
vt 0.390228 0.062500
vt 0.390228 0.093750
vt 0.236025 0.656250
vt 0.236025 0.625000
vt 0.388975 0.625000
vt 0.388975 0.656250
vt 0.610204 0.343750
vt 0.610204 0.312500
vt 0.764796 0.312500
vt 0.764796 0.343750
vt 0.422272 0.531250
vt 0.422272 0.500000
vt 0.577728 0.500000
vt 0.577728 0.531250
vt 0.422272 0.781250
vt 0.422272 0.750000
vt 0.577728 0.750000
vt 0.577728 0.781250
vt 0.765228 0.062500
vt 0.765228 0.093750
vt 0.609772 0.093750
vt 0.609772 0.062500
vt 0.609772 0.968750
vt 0.609772 0.937500
vt 0.765228 0.937500
vt 0.765228 0.968750
vt 0.202506 0.156235
vt 0.047494 0.156235
vt 0.577083 0.468750
vt 0.422917 0.468750
vt 0.422917 0.437500
vt 0.577083 0.437500
vt 0.047272 0.187500
vt 0.202728 0.187500
vt 0.202728 0.218750
vt 0.047272 0.218750
vt 0.201963 0.468735
vt 0.048037 0.468735
vt 0.048037 0.437485
vt 0.201963 0.437485
vt 0.234772 0.968750
vt 0.234772 0.937500
vt 0.390228 0.937500
vt 0.390228 0.968750
vt 0.765228 0.375000
vt 0.765228 0.406250
vt 0.609772 0.406250
vt 0.609772 0.375000
vt 0.202728 0.500000
vt 0.202728 0.531250
vt 0.047272 0.531250
vt 0.047272 0.500000
vt 0.422586 0.156189
vt 0.422604 0.124939
vt 0.577362 0.125032
vt 0.577343 0.156282
vt 0.765228 0.687500
vt 0.765228 0.718750
vt 0.609772 0.718750
vt 0.609772 0.687500
vt 0.577728 0.812500
vt 0.577728 0.843750
vt 0.422272 0.843750
vt 0.422272 0.812500
vt 0.202728 0.750000
vt 0.202728 0.781250
vt 0.047272 0.781250
vt 0.047272 0.750000
vt 0.906250 0.781250
vt 0.906250 0.312500
vt 0.906250 0.281250
vt 0.906250 0.687500
vt 0.968750 0.843750
vt 0.906250 0.187500
vt 0.968750 0.500000
vt 0.812500 0.312500
vt 0.968750 0.093750
vt 0.968750 0.218750
vt 0.906250 0.031250
vt 0.906250 0.593750
vt 0.968750 0.125000
vt 0.968750 0.656250
vt 0.812500 0.031250
vt 0.906250 0.406250
vt 0.875000 0.093750
vt 0.875000 0.375000
vt 0.186570 0.406235
vt 0.063430 0.406235
vt 0.749682 0.125000
vt 0.625318 0.125000
vt 0.374682 0.437500
vt 0.250318 0.437500
vt 0.187182 0.250000
vt 0.062818 0.250000
vt 0.749682 0.437500
vt 0.625318 0.437500
vt 0.251320 0.593750
vt 0.373680 0.593750
vt 0.187182 0.562500
vt 0.062818 0.562500
vt 0.374682 0.125000
vt 0.250318 0.125000
vt 0.062818 0.718750
vt 0.187182 0.718750
vt 0.562182 0.875000
vt 0.437818 0.875000
vt 0.625663 0.281250
vt 0.749337 0.281250
vt 0.625318 0.906250
vt 0.749682 0.906250
vt 0.438334 0.406250
vt 0.561667 0.406250
vt 0.437818 0.718750
vt 0.562182 0.718750
vt 0.250994 0.281235
vt 0.374006 0.281235
vt 0.625648 0.593750
vt 0.749352 0.593750
vt 0.250318 0.906250
vt 0.374682 0.906250
vt 0.749682 0.750000
vt 0.625318 0.750000
vt 0.187182 0.875000
vt 0.062818 0.875000
vt 0.438097 0.093698
vt 0.561902 0.093773
vt 0.562182 0.562500
vt 0.437818 0.562500
vt 0.219227 0.156250
vt 0.405774 0.156250
vt 0.390228 0.187500
vt 0.234772 0.187500
vt 0.610204 0.218750
vt 0.764796 0.218750
vt 0.780255 0.250000
vt 0.594745 0.250000
vt 0.390228 0.500000
vt 0.234772 0.500000
vt 0.219226 0.468750
vt 0.405774 0.468750
vt 0.404270 0.562500
vt 0.220730 0.562500
vt 0.236025 0.531250
vt 0.388975 0.531250
vt 0.031726 0.687500
vt 0.218273 0.687500
vt 0.218274 0.593750
vt 0.031726 0.593750
vt 0.593274 0.906250
vt 0.406727 0.906250
vt 0.594226 0.875000
vt 0.780773 0.875000
vt 0.577728 0.937500
vt 0.422272 0.937500
vt 0.422656 0.031188
vt 0.577413 0.031282
vt 0.592873 0.062542
vt 0.407164 0.062429
vt 0.765228 0.812500
vt 0.609772 0.812500
vt 0.594227 0.781250
vt 0.780773 0.781250
vt 0.047272 0.656250
vt 0.202728 0.656250
vt 0.765228 0.187500
vt 0.609772 0.187500
vt 0.594226 0.156250
vt 0.780773 0.156250
vt 0.422272 0.656250
vt 0.577728 0.656250
vt 0.593273 0.687500
vt 0.406727 0.687500
vt 0.406727 0.593750
vt 0.593273 0.593750
vt 0.577728 0.625000
vt 0.422272 0.625000
vt 0.609772 0.843750
vt 0.765228 0.843750
vt 0.201963 0.343735
vt 0.217355 0.374985
vt 0.032645 0.374985
vt 0.048037 0.343735
vt 0.218273 0.281250
vt 0.202728 0.312500
vt 0.047272 0.312500
vt 0.031727 0.281250
vt 0.031993 0.062485
vt 0.047494 0.031703
vt 0.202506 0.031703
vt 0.218007 0.062485
vt 0.577083 0.343750
vt 0.592500 0.375000
vt 0.407500 0.375000
vt 0.422917 0.343750
vt 0.202728 0.625000
vt 0.047272 0.625000
vt 0.234772 0.843750
vt 0.390228 0.843750
vt 0.405774 0.875000
vt 0.219226 0.875000
vt 0.406726 0.281250
vt 0.593274 0.281250
vt 0.577728 0.312500
vt 0.422272 0.312500
vt 0.594226 0.468750
vt 0.780773 0.468750
vt 0.765228 0.500000
vt 0.609772 0.500000
vt 0.780278 0.562500
vt 0.594722 0.562500
vt 0.610185 0.531250
vt 0.764815 0.531250
vt 0.031726 0.906250
vt 0.218273 0.906250
vt 0.202728 0.937500
vt 0.047272 0.937500
vt 0.235618 0.218735
vt 0.389382 0.218735
vt 0.404759 0.249985
vt 0.220242 0.249985
vt 0.390228 0.812500
vt 0.234772 0.812500
vt 0.219226 0.781250
vt 0.405773 0.781250
vn -0.000000 1.000000 0.000000
vn -0.000000 -0.000000 -1.000000
vn 1.000000 0.000000 0.000000
vn -0.000000 -0.000000 1.000000
vn -1.000000 -0.000000 -0.000000
vn 0.000000 -1.000000 0.000000
vn 0.577350 0.577350 -0.577350
vn 0.000001 -0.000000 -1.000000
vn -0.000001 -0.000001 1.000000
vn -0.577350 0.577350 -0.577351
vn -0.577350 0.577350 -0.577350
vn -0.577350 0.577350 0.577350
vn -0.577351 0.577350 0.577350
vn 0.577350 0.577350 0.577350
vn 0.577350 0.577350 0.577351
vn -0.577350 -0.577350 -0.577350
vn -0.577350 -0.577350 0.577351
vn -0.577350 -0.577350 0.577350
vn 0.577350 -0.577350 0.577350
vn 0.577350 -0.577350 0.577351
vn 0.577350 -0.577350 -0.577350
vn 0.577351 0.577350 -0.577350
vn 0.577350 0.577351 -0.577350
vn -0.577350 -0.577350 -0.577351
vn 0.577350 -0.577350 -0.577351
vn 0.577351 -0.577350 -0.577350
usemtl Material_Template.png
s off
f 64/1/1 13/2/1 12/3/1 20/4/1
f 68/5/2 28/6/2 10/7/2 21/8/2
f 72/9/3 29/10/3 9/11/3 36/12/3
f 76/13/4 37/14/4 7/15/4 44/16/4
f 80/17/5 45/18/5 12/3/5 52/19/5
f 84/20/6 53/21/6 4/22/6 60/23/6
f 89/24/7 30/25/7 3/26/7 22/27/7
f 15/28/1 10/7/1 14/29/1 62/30/1
f 9/11/1 16/31/1 61/32/1 17/33/1
f 18/34/1 63/35/1 19/36/1 11/37/1
f 23/38/2 66/39/2 22/27/2 3/26/2
f 2/40/8 25/41/8 65/42/8 24/43/8
f 26/44/2 8/45/2 27/46/2 67/47/2
f 31/48/3 3/26/3 30/25/3 70/49/3
f 1/50/3 32/51/3 69/52/3 33/53/3
f 34/54/3 71/55/3 35/56/3 5/57/3
f 39/58/9 11/37/9 38/59/9 74/60/9
f 5/57/4 40/61/4 73/62/4 41/63/4
f 42/64/4 75/65/4 43/66/4 4/22/4
f 47/67/5 7/15/5 46/68/5 78/69/5
f 6/70/5 48/71/5 77/72/5 49/73/5
f 50/74/5 79/75/5 51/76/5 8/45/5
f 55/77/6 1/50/6 54/78/6 82/79/6
f 2/40/6 56/80/6 81/81/6 57/82/6
f 58/83/6 83/84/6 59/85/6 6/70/6
f 16/31/7 9/11/7 29/10/7 90/86/7
f 88/87/7 21/8/7 10/7/7 15/28/7
f 62/88/1 14/89/1 13/90/1 64/91/1
f 51/92/5 79/93/5 80/94/5 52/95/5
f 14/29/10 10/7/10 28/6/10 87/96/10
f 52/19/11 12/3/11 13/2/11 85/97/11
f 87/98/11 85/99/11 13/90/11 14/89/11
f 86/100/11 27/46/11 8/45/11 51/76/11
f 51/92/11 52/95/11 85/101/11 86/102/11
f 87/103/10 28/104/10 27/105/10 86/106/10
f 61/107/1 16/108/1 15/109/1 62/110/1
f 63/111/1 18/112/1 17/113/1 61/114/1
f 19/115/1 63/116/1 64/117/1 20/118/1
f 81/119/6 56/120/6 55/121/6 82/122/6
f 59/123/6 83/124/6 84/125/6 60/126/6
f 83/127/6 58/128/6 57/129/6 81/130/6
f 82/131/6 54/132/6 53/133/6 84/134/6
f 35/135/3 71/136/3 72/137/3 36/138/3
f 70/139/3 30/140/3 29/141/3 72/142/3
f 69/143/3 32/144/3 31/145/3 70/146/3
f 71/147/3 34/148/3 33/149/3 69/150/3
f 27/105/2 28/104/2 68/151/2 67/152/2
f 66/153/2 68/154/2 21/155/2 22/156/2
f 67/157/2 65/158/2 25/159/2 26/160/2
f 65/161/8 66/162/8 23/163/8 24/164/8
f 78/165/5 46/166/5 45/167/5 80/168/5
f 79/169/5 50/170/5 49/171/5 77/172/5
f 77/173/5 48/174/5 47/175/5 78/176/5
f 73/177/4 40/178/4 39/179/4 74/180/4
f 74/181/4 38/182/4 37/183/4 76/184/4
f 75/185/4 42/186/4 41/187/4 73/188/4
f 43/189/4 75/190/4 76/191/4 44/192/4
f 38/59/12 11/37/12 19/36/12 94/193/12
f 20/4/13 12/3/13 45/18/13 96/194/13
f 46/68/13 7/15/13 37/14/13 95/195/13
f 36/12/14 9/11/14 17/33/14 91/196/14
f 18/34/15 11/37/15 39/58/15 93/197/15
f 40/61/15 5/57/15 35/56/15 92/198/15
f 106/199/16 50/74/16 8/45/16 26/44/16
f 107/200/16 25/41/16 2/40/16 57/82/16
f 58/83/16 6/70/16 49/73/16 108/201/16
f 44/16/17 7/15/17 47/67/17 97/202/17
f 48/71/18 6/70/18 59/85/18 98/203/18
f 60/23/18 4/22/18 43/66/18 99/204/18
f 34/54/19 5/57/19 41/63/19 100/205/19
f 42/64/20 4/22/20 53/21/20 101/206/20
f 54/78/19 1/50/19 33/53/19 102/207/19
f 103/208/21 23/38/21 3/26/21 31/48/21
f 32/51/21 1/50/21 55/77/21 104/209/21
f 105/210/21 56/80/21 2/40/21 24/43/21
f 105/211/21 24/164/21 23/163/21 103/212/21
f 104/213/21 103/214/21 31/145/21 32/144/21
f 105/215/21 104/216/21 55/121/21 56/120/21
f 25/159/16 107/217/16 106/218/16 26/160/16
f 49/171/16 50/170/16 106/219/16 108/220/16
f 57/129/16 58/128/16 108/221/16 107/222/16
f 98/223/18 97/224/18 47/175/18 48/174/18
f 59/123/18 60/126/18 99/225/18 98/226/18
f 43/189/18 44/192/18 97/227/18 99/228/18
f 41/187/20 42/186/20 101/229/20 100/230/20
f 102/231/19 101/232/19 53/133/19 54/132/19
f 33/149/19 34/148/19 100/233/19 102/234/19
f 21/155/7 88/235/7 89/236/7 22/156/7
f 30/140/22 89/237/22 90/238/22 29/141/22
f 90/239/23 88/240/23 15/109/23 16/108/23
f 19/115/12 20/118/12 96/241/12 94/242/12
f 95/243/13 96/244/13 45/167/13 46/166/13
f 94/245/12 95/246/12 37/183/12 38/182/12
f 17/113/14 18/112/14 93/247/14 91/248/14
f 92/249/15 93/250/15 39/179/15 40/178/15
f 35/135/14 36/138/14 91/251/14 92/252/14
f 115/253/7 114/254/7 84/255/7 83/256/7
f 82/257/11 84/258/11 114/259/11 116/260/11
f 81/261/12 82/262/12 116/263/12 117/264/12
f 117/265/14 115/266/14 83/267/14 81/268/14
f 98/226/1 99/225/1 114/254/1 115/253/1
f 99/228/2 97/227/2 119/269/2 114/270/2
f 115/271/3 119/272/3 97/224/3 98/223/3
f 101/232/1 102/231/1 116/260/1 114/259/1
f 114/273/2 111/274/2 100/230/2 101/229/2
f 102/234/5 100/233/5 111/275/5 116/276/5
f 111/274/10 114/273/10 75/277/10 73/278/10
f 73/279/24 74/280/24 110/281/24 111/282/24
f 74/283/25 76/284/25 119/285/25 110/286/25
f 114/270/7 119/269/7 76/287/7 75/288/7
f 69/289/12 70/290/12 120/291/12 116/292/12
f 70/293/18 72/294/18 109/295/18 120/296/18
f 111/297/16 109/298/16 72/299/16 71/300/16
f 116/276/11 111/275/11 71/301/11 69/302/11
f 65/303/13 117/304/13 120/305/13 66/306/13
f 117/307/14 65/308/14 67/309/14 118/310/14
f 118/311/19 67/312/19 68/313/19 112/314/19
f 66/315/18 120/316/18 112/317/18 68/318/18
f 77/319/22 78/320/22 119/272/22 115/271/22
f 78/321/26 80/322/26 113/323/26 119/324/26
f 118/325/19 113/326/19 80/327/19 79/328/19
f 115/329/14 118/330/14 79/331/14 77/332/14
f 107/222/1 108/221/1 115/266/1 117/265/1
f 108/220/3 106/219/3 118/330/3 115/329/3
f 117/307/4 118/310/4 106/218/4 107/217/4
f 117/304/4 105/211/4 103/212/4 120/305/4
f 103/214/5 104/213/5 116/292/5 120/291/5
f 104/216/1 105/215/1 117/264/1 116/263/1
f 110/333/26 113/334/26 64/335/26 63/336/26
f 109/337/24 110/338/24 63/339/24 61/340/24
f 61/341/18 62/342/18 112/343/18 109/344/18
f 62/345/20 64/346/20 113/347/20 112/348/20
f 95/246/2 94/245/2 110/286/2 119/285/2
f 94/242/6 96/241/6 113/334/6 110/333/6
f 119/324/3 113/323/3 96/244/3 95/243/3
f 113/326/3 118/325/3 86/102/3 85/101/3
f 85/99/6 87/98/6 112/348/6 113/347/6
f 112/314/4 87/103/4 86/106/4 118/311/4
f 120/316/4 89/236/4 88/235/4 112/317/4
f 88/240/6 90/239/6 109/344/6 112/343/6
f 90/238/5 89/237/5 120/296/5 109/295/5
f 92/252/5 91/251/5 109/298/5 111/297/5
f 91/248/6 93/247/6 110/338/6 109/337/6
f 111/282/2 110/281/2 93/250/2 92/249/2
